<svg width="1254" height="1254" viewBox="0 0 1254 1254" fill="none" xmlns="http://www.w3.org/2000/svg">
<path d="M618.844 138.668C618.997 138.659 619.156 138.649 619.31 138.64C742.683 136.67 857.661 184.802 946.366 269.059C1040.76 359.664 1095.66 483.812 1099.17 614.612C1102.27 744.807 1053.37 870.88 963.29 964.936C876.839 1055.31 761.07 1109.72 635.419 1112.54C515.309 1113.6 399.435 1068.21 312.004 985.846C216.98 897.497 160.561 775.293 154.956 645.662C150.314 514.192 197.926 386.233 287.38 289.775C372.955 196.746 492.496 142.251 618.844 138.668ZM638.481 1099.21C756 1096.86 870.563 1042.33 951.583 958.011C1040.1 866.833 1088.61 744.115 1086.34 617.055C1083.17 489.48 1029.95 368.27 938.167 279.608C852.953 196.419 738.164 150.517 619.083 152.011C617.975 152.035 616.86 152.072 615.746 152.121C493.978 156.462 379.058 209.545 296.807 299.444C210.305 392.634 163.964 516.129 167.805 643.219C172.96 770.18 228.182 889.941 321.395 976.301C408.162 1056.52 519.845 1101.87 638.481 1099.21Z" fill="#F2E3B5"/>
<path d="M576.809 609.754C571.495 602.677 566.923 595.898 562.575 588.427C544.368 557.267 551.304 517.832 584.665 500.431C602.025 490.909 618.538 489.186 638.076 490.689C674.637 493.501 707.408 520.977 695.535 560.284C688.304 584.226 667.871 595.675 646.949 606.506C652.031 612.134 657.683 619.561 662.703 625.561C672.494 637.226 682.42 648.774 692.492 660.199C697.654 649.784 701.438 638.793 701.554 627C701.475 616.469 690.288 599.886 706.691 595.642C735.757 588.121 744.06 603.101 739.094 629.768C734.863 652.503 726.61 667.939 714.559 686.682C723.517 695.97 736.082 710.543 750.012 710.745C756.833 710.849 758.486 708.198 765.999 710.972C767.016 712.931 768.24 715.154 769.171 717.113C768.852 722.391 767.316 726.99 763.985 731.166C749.246 749.627 721.27 752.688 699.821 746.424C689.204 743.326 681.52 738.305 672.874 731.668C641.346 751.647 603.331 754.237 567.892 743.344C550.251 737.919 532.91 725.636 524.636 708.841C512.021 683.228 519.811 653.709 539.51 634.103C550.763 622.708 562.722 616.683 576.809 609.754ZM640.011 716.654C645.265 714.493 648.082 713.262 652.827 710.035C642.063 697.189 631.513 684.159 621.177 670.964C615.617 663.781 605.343 649.509 599.599 643.281C595.622 649.307 593.032 653.807 591.276 660.891C585.391 684.655 593.214 717.572 622.708 718.95C628.065 719.201 634.929 718.436 640.011 716.654ZM628.58 576.976C638.046 566.264 643.906 554.742 643.159 540.009C642.491 526.898 636.925 517.948 622.695 518.685C617.344 521.023 614.105 523.377 611.871 529.052C607.931 539.058 610.485 551.09 614.919 560.495C617.044 564.999 622.646 575.441 626.43 578.512C627.692 577.955 627.612 577.972 628.58 576.976Z" fill="#F2E3B5"/>
<path d="M765.999 710.971L766.201 710.187C768.626 700.482 768.014 680.974 768.014 670.094L767.977 620.466L767.959 565.166C767.953 554.909 768.038 544.743 767.683 534.474C767.175 519.576 747.685 518.017 750.704 502.966C751.212 499.154 753.563 496.084 757.213 494.384C776.451 485.416 796.927 475.872 816.925 468.814C826.177 465.548 834.822 473.474 835.024 483.621C835.637 514.161 834.779 544.882 835.245 575.475C851.214 563.473 866.938 557.45 887.303 560.737C957.651 572.094 936.489 654.976 943.268 704.854C944.186 711.608 948.184 717.89 952.813 722.825C961.716 731.41 962.641 745.946 947.248 746.73C934.408 746.736 920.043 747.299 907.35 746.705C898.508 746.295 880.317 748.438 873.018 746.295C851.991 740.111 875.669 720.48 878.094 710.653C879.178 706.244 878.798 701.768 878.963 697.311C878.29 673.896 879.925 650.31 877.61 626.994C876.637 617.184 872.712 602.749 862.541 598.729C847.019 593.335 836.304 606.865 833.965 620.73C830.8 639.552 832.685 657.915 832.238 676.86C832.349 687.857 831.651 698.627 832.814 709.587C833.683 721.246 848.807 726.609 846.591 738.617C845.483 744.623 840.119 746.662 834.449 746.779C815.676 747.152 796.859 746.668 778.074 746.834C774.467 746.864 763.948 747.691 761.689 745.523C762.509 740.068 786.267 726.162 769.171 717.113C768.24 715.153 767.016 712.93 765.999 710.971Z" fill="#F2E3B5"/>
<path d="M371.398 478.299C372.099 478.246 372.802 478.208 373.506 478.183C386.313 477.747 388.977 484.321 389.027 495.73C389.062 503.616 389.087 511.59 389.09 519.479L389.164 577.684C394.887 572.899 398.803 569.982 405.86 566.936C422.263 560.042 440.702 559.787 457.289 566.226C492.095 580.095 494.649 616.285 495.724 648.401L496.935 683.663C497.121 688.256 497.437 692.879 497.639 697.453C497.92 703.808 498.587 707.911 501.222 713.746C505.274 722.716 518.938 729.66 513.932 740.859C511.864 745.482 505.625 746.786 501.089 746.945C477.671 746.529 454.341 747.061 430.92 746.731C421.474 746.596 417.104 738.746 420.92 730.535C424.541 722.741 432.199 719.042 433.376 709.337C434.501 700.055 434.055 691.109 434.123 681.796C433.879 660.169 435.215 637.851 430.582 616.641C421.035 587.068 394.558 595.423 389.374 619.984C385.493 638.371 388.567 663.237 387.541 682.371C387.22 688.366 387.291 697.342 387.721 703.19C387.962 706.417 388.581 709.601 389.565 712.674C391.893 719.753 397.768 723.426 401.305 729.617C402.936 732.47 403.715 735.642 402.718 738.85C401.816 741.747 399.77 744.459 396.972 745.745C392.907 747.613 317.398 747.612 313.011 745.831C310.484 744.802 308.306 742.041 307.346 739.555C303.326 729.139 317.937 720.677 321.444 712.038C323.07 708.033 323.734 703.557 323.963 699.253C324.744 684.576 324.339 669.709 324.341 655.008L324.244 582.999C324.174 568.651 324.931 553.499 323.583 539.288C322.089 529.584 311.105 526.307 307.947 518.057C305.629 511.704 309.273 504.43 315.386 501.896C333.024 494.589 353.389 483.898 371.398 478.299Z" fill="#F2E3B5"/>
<path d="M608.427 860.546C619.426 859.211 673.462 860.313 682.083 864.9C685.059 868.457 684.238 873.178 684.214 878.058C687.753 876.601 690.784 875.75 694.684 876.178C698.805 876.65 702.546 878.805 705.026 882.13C708.228 886.349 709.355 891.731 708.626 896.935C707.788 903.205 704.334 908.832 699.123 912.421C692.119 917.221 685.873 916.829 678.17 915.323C670.945 929.994 667.957 932.682 654.897 942.264C663.953 941.107 680.307 933.668 685.285 936.117C687.606 941.505 678.881 944.309 675.28 945.712C658.454 952.49 630.558 951.975 612.148 950.849C604.382 950.377 575.849 947.193 574.52 938.094C575.316 936.141 575.217 936.251 576.959 935.064C579.02 934.647 586.968 937.874 589.614 938.707C595.002 940.409 600.011 941.407 605.522 942.503C603.827 941.383 602.167 940.219 600.544 938.995C586.489 928.243 579.413 914.484 577.436 897.119C576.858 892.049 574.581 868.396 577.967 865.316C581.891 861.752 602.842 860.981 608.427 860.546ZM676.082 871.721C645.198 875.982 615.519 876.46 584.588 871.635C584.51 887.016 584.466 903.016 591.972 916.964C599.053 930.116 614.074 941.915 629.431 942.16C641.873 942.356 654.652 934.243 662.477 925.003C675.384 908.949 676.199 891.706 676.082 871.721ZM690.955 907.577C696.313 904.405 698.554 902.311 700.177 896.096C701.622 890.555 699.013 884.671 692.921 884.144C691.984 884.071 691.041 884.071 690.104 884.132C685.261 887.187 684.722 888.779 683.204 894.302C681.985 898.742 680.84 902.434 682.836 906.812C685.53 909.022 687.728 908.471 690.955 907.577Z" fill="#F2E3B5"/>
<path d="M617.123 887.921C617.748 887.896 618.366 887.884 618.985 887.878C624.471 887.854 626.345 889.513 630.129 893.315C633.135 890.26 635.94 888.062 640.36 887.615C645.798 887.064 648.829 892.238 649.006 896.989C649.263 904.012 645.467 908.99 641.114 913.95C638.187 916.785 633.662 922.069 629.902 922.167C620.558 919.179 601.861 897.43 617.123 887.921ZM630.545 915.713C633.637 912.572 637.434 908.911 640.122 905.518C642.008 902.543 643.526 900.13 643.324 896.481C642.406 894.515 642.534 894.595 640.758 893.383C634.984 893.615 634.813 900.326 630.386 902.365C624.624 900.969 627.251 894.797 618.82 893.064C612.874 901.306 624.826 910.343 630.545 915.713Z" fill="#F2E3B5"/>
<path d="M621.961 866.595C626.48 866.369 636.172 866.161 640.36 867.342L639.411 868.04C635.872 868.175 622.793 869.191 620.577 867.526L621.961 866.595Z" fill="#846558"/>
<path d="M722.477 234.042C751.451 232.842 763.875 263.981 729.928 271.12C732.525 277.927 735.702 284.62 738.868 291.173C740.295 289.112 741.623 287.115 742.744 284.846C745.322 279.644 743.522 269.794 751.604 270.2C753.496 270.296 755.284 271.106 756.6 272.467C764.493 280.599 748.555 295.976 742.842 301.061C744.82 304.876 746.265 307.521 749.302 310.58C752.829 311.39 753.876 311.043 755.064 314.53C754.108 320.478 745.083 321.123 740.436 319.972C734.466 318.494 730.522 315.456 727.167 310.403C712.276 313.037 690.361 310.288 685.983 292.793C684.679 287.733 685.536 282.355 688.347 277.949C693.184 270.42 700.556 268.051 708.639 266.17C707.812 263.864 707.145 261.504 706.642 259.106C703.856 246.08 709.269 236.565 722.477 234.042ZM716.856 302.64C718.833 302.543 720.799 302.718 722.391 301.693C721.46 298.715 714.26 279.828 712.649 277.878C704.769 286.798 702.264 299.904 716.856 302.64ZM728.006 260.409C733.057 255.401 739.18 245.89 728.771 242.765C723.597 247.038 722.44 254.526 725.679 260.284L726.5 260.867L728.006 260.409Z" fill="#F2E3B5"/>
<path d="M921.917 388.498C926.827 389.818 938.418 396.178 940.047 401.337C939.422 404.035 939.557 403.24 937.279 405.524C940.427 407.355 943.874 407.303 947.039 410.152C953.916 416.325 953.26 420.617 953.065 428.872C953.003 431.331 959.751 431.791 962.702 434.434C966.033 437.531 970.73 442.186 970.76 447.679C970.87 467.821 943.433 469.26 936.14 485.559C935.669 486.616 933.581 486.668 932.632 486.624C928.395 483.083 922.045 472.426 920.416 466.956C919.094 462.493 928.095 463.624 929.515 462.7C935.295 458.941 956.218 449.196 953.015 441.051C949.378 437.841 946.843 438.043 942.766 440.139C936.679 444.288 929.791 448.263 924.335 453.162C921.249 455.934 922.198 458.95 919.29 460.702C912.891 461.45 911.973 453.899 908.232 449.911C907.472 449.359 902.366 441.53 903.89 441.017C911.44 438.478 939.398 425.78 936.275 415.809C933.281 406.257 915.475 422.367 911.318 425.075C907.895 427.303 903.462 434.621 900.394 436.328C896.647 434.621 884.713 419.024 885.356 415.116C889.213 410.223 891.981 414.083 896.004 411.946C903.278 408.083 911.269 401.86 917.869 397.009C918.794 392.835 918.837 391.248 921.917 388.498Z" fill="#F2E3B5"/>
<path d="M607.29 216.797C611.654 216.611 613.346 218.623 613.542 222.823C613.933 231.076 613.597 239.832 613.517 248.094C620.05 243.495 626.051 241.484 633.913 244.296C651.094 250.44 645.381 273.076 646.759 287.004C646.955 289.007 650.69 293.142 651.48 295.257C652.184 297.116 651.719 297.497 651.008 299.072C650.512 299.413 649.251 300.264 648.492 300.299C643.808 300.511 627.606 301.6 624.294 299.68C620.724 297.612 626.529 292.088 627.024 288.245C628.041 280.362 627.753 268.337 626.124 260.75C621.832 250.697 614.117 256.668 613.695 265.294C613.309 273.277 613.45 280.975 613.529 288.955C615.936 292.475 619.138 295.09 617.534 299.144C614.589 301.848 593.195 302.129 589.348 299.399C588.179 295.607 591.622 292.502 593.855 289.642C594.515 272.941 593.609 251.271 593.277 234.344C585.134 226.896 587.331 223.878 597.327 220.511C600.528 219.433 604.1 218.019 607.29 216.797Z" fill="#F2E3B5"/>
<path d="M336.44 384C350.145 383.189 360.31 395.084 371.857 402.028L372.735 402.55C376.433 402.357 379.154 401.473 381.661 404.62C383.391 410.493 370.27 425.012 366.021 426.528C362.179 425.229 362.076 422.574 360.967 419.005C358.4 416.776 326.321 389.969 330.584 411.107C331.338 414.842 348.258 425.972 352.846 429.189C356.612 429.024 361.007 428.139 362.368 432.38C362.086 435.064 360.86 436.369 359.332 438.621C352.226 448.111 346.449 463.778 340.552 445.457C339.852 443.283 302.624 417.347 298.871 414.875L295.763 415.353C292.47 415.875 291.219 416.506 288.831 413.912C287.846 409.603 289.772 405.003 290.971 400.823C292.121 396.818 292.283 391.832 296.616 390.352C302.155 391.13 315.53 401.907 320.644 405.63C321.547 394.696 325.155 387.067 336.44 384Z" fill="#F2E3B5"/>
<path d="M814.873 269.354C849.665 270.892 835.839 281.409 823.66 302.308C836.586 300.48 849.303 310.554 846.597 323.734C844.57 333.594 835.973 343.829 831.553 353.161L831.136 354.051L831.498 357.001C831.896 360.177 832.024 360.767 829.385 362.858C823.287 363.977 810.545 354.476 807.207 349.685C808.089 348.035 811.5 344.992 813.012 343.747C816.3 341.049 817.035 339.454 819.215 335.849C820.746 333.254 837.529 308.154 820.709 311.427C815.712 312.4 805.854 331.304 802.597 337.406C803.35 341.457 804.654 344.325 800.441 346.373C796.437 346.328 779.292 336.754 778 333.109C779.121 327.697 785.183 328.157 787.608 324.539C790.002 320.976 792.99 315.755 795.182 312.047C801.617 301.316 807.912 290.499 814.065 279.601C813.716 277.953 813.41 276.298 813.141 274.635C812.749 272.046 813.343 271.432 814.873 269.354Z" fill="#F2E3B5"/>
<path d="M437.219 295.851C458.853 293.201 460.688 311.737 472.02 324.901C474.828 328.164 477.202 325.767 480.208 329.01C482.145 338.075 467.891 343.507 460.775 341.154C454.158 353.713 439.459 361.159 428.001 349.847C417.647 335.346 429.746 322.293 444.028 317.887C441.64 314.452 436.033 305.632 431.45 308.081C427.689 313.847 431.552 329.459 418.487 324.503C411.836 321.998 412.469 316.338 415.536 311.13C420.424 302.832 428.25 298.275 437.219 295.851ZM451.432 340.497C457.49 334.892 451.218 325.677 444.679 325.648C437.738 332.102 443.831 339.924 451.432 340.497Z" fill="#F2E3B5"/>
<path d="M867.477 330.93C871.291 331.33 883.911 339.695 885.956 342.403C886.826 351.097 855.567 370.097 862.046 380.001C871.267 385.228 882.209 368.88 888.136 362.404C888.24 358.849 887.995 354.571 892.33 353.876C896.977 353.131 909.187 363.097 909.322 367.175C908.36 369.645 906.517 371.08 904.595 372.988C897.106 380.968 887.903 390.291 880.99 398.575C881.339 401.157 881.774 402.402 880.911 404.755C879.9 405.819 879.502 406.562 877.714 406.51C874.677 406.423 870.171 402.782 868.303 400.709C864.666 396.676 864.354 397.112 864.415 392.044L864.434 391.236C863.405 389.763 855.91 389.475 852.622 386.719C830.885 368.495 852.757 354.582 863.87 340.269L864.415 339.564C864.636 335.121 864.489 334.061 867.477 330.93Z" fill="#F2E3B5"/>
<path d="M387.58 333.204C396.649 332.586 401.903 335.059 406.598 342.783C404.877 347.796 402.898 351.552 400.407 356.17C398.119 360.413 394.408 363.929 393.437 368.37C394.425 371.699 396.122 371.213 399.239 370.772C408.958 369.394 409.316 362.456 413.765 355.718C415.501 354.991 415.37 355.022 417.216 355.42C424.308 360.664 418.251 373.396 414.205 378.971C397.342 396.858 370.302 391.858 364.079 368.18C362.074 360.668 363.301 352.66 367.462 346.092C372.23 338.641 379.156 334.907 387.58 333.204ZM385.693 363.102C388.007 359.016 389.005 357.251 390.611 352.849C387.316 348.352 386.092 346.434 380.208 346.527C374.625 352.283 379.124 361.741 384.819 363.976L385.693 363.102Z" fill="#F2E3B5"/>
<path d="M544.527 237.018L546.777 237.586C549.983 240.251 550.484 246.72 551.306 251.1C556.375 249.901 566.114 246.856 568.901 253.105C568.542 259.5 558.5 260.92 553.876 261.9C555.478 268.906 557.946 286.929 562.999 290.542C569.355 291.633 572.574 283.083 577.842 284.652C581.021 288.773 577.554 296.913 575.12 300.711C569.011 307.074 557.576 310.498 549.565 306.442C536.757 299.957 537.875 278.491 533.492 266.324C530.713 265.614 526.84 267.282 525.558 263.516C524.882 261.547 524.832 257.706 527.157 256.886C535.952 253.786 535.375 247.64 538.082 240.146C538.895 237.896 542.251 237.44 544.527 237.018Z" fill="#F2E3B5"/>
<path d="M505.537 261.527C515.572 261.704 522.843 272.426 515.798 280.677C510.472 286.913 504.264 278.268 499.662 278.48C496.165 283.472 506.015 305.769 509.04 310.691C512.584 312.321 516.224 313.223 516.017 317.633C513.607 321.408 503.973 324.012 499.357 325.732C495.358 327.324 490.053 330.265 487.646 325.38C487.447 322.316 488.518 320.543 489.712 317.679C487.582 311.028 482.636 297.037 479.144 290.89C478.149 289.139 473.455 289.115 471.583 284.889C471.643 280.737 484.455 268.247 488.43 268.154C490.454 268.832 490.795 269.692 492.054 271.44L492.506 272.079C496.708 269.455 494.333 264.826 505.537 261.527Z" fill="#F2E3B5"/>
<path d="M347.9 856.896C351.506 857.466 357.752 861.33 360.35 863.809C360.657 865.812 360.396 865.389 359.092 867.649C361.685 870.055 364.542 869.222 367.96 872.706C371.46 876.276 369.468 881.719 370.972 882.583C374.406 884.107 379.002 885.387 381.606 888.197C388.257 895.38 377.733 906.291 372.05 910.669C368.659 913.278 366.831 918.758 364.318 920.307C361.202 919.217 353.526 911.477 353.636 907.957C359.461 904.809 373.647 896.727 372.284 889.024C369.495 886.293 365.974 888.834 363.561 890.806C360.278 893.861 354.055 897.903 352.788 902.17C352.051 904.65 352.144 904.858 349.695 905.391C347.027 903.909 341.403 897.107 339.83 894.388C339.935 892.526 339.592 893.335 341.072 891.957C341.967 891.798 345.121 891.204 345.678 890.714C349.211 887.604 362.122 878.076 358.739 872.89C352.853 871.341 344.635 880.697 340.089 884.628C339.334 887.536 339.454 889.428 336.338 890.01C333.805 888.651 325.868 879.674 325.935 876.901C328.517 874.286 330.017 876.552 333.306 873.925C337.612 870.484 341.562 866.797 345.889 863.289C346.518 861.146 347.188 859.015 347.9 856.896Z" fill="#F2E3B5"/>
<path d="M529.509 965.195C533.066 964.925 536.4 963.964 539.102 966.597C540.741 970.516 536.621 979.302 535.046 984.335C558.179 977.931 561.854 1011.2 540.26 1018.31C532.129 1018.99 531.905 1017.51 525.495 1013.16C523.949 1012.11 512.312 1016.57 513.105 1008.68C518.107 1003.24 523.329 980.441 525.534 972.432C524.517 970.05 523.701 968.85 524.246 966.468C525.98 965.164 527.316 965.335 529.509 965.195ZM535.362 1010.8C539.95 1006.03 547.16 988.811 535.155 989.24C531.687 993.195 526.839 1005.37 530.499 1010.03C532.537 1011.22 532.958 1011.11 535.362 1010.8Z" fill="#F2E3B5"/>
<path d="M694.635 972.223L697.066 972.51C699.436 974.678 701.028 986.165 701.897 990.2C704.989 987.334 710.414 983.397 714.945 984.616C727.302 987.934 724.381 1003.81 730.247 1011.94C730.669 1012.54 731.098 1013.14 731.539 1013.73C731.716 1015.64 731.943 1014.8 730.859 1016.34C726.787 1018.16 718.901 1019.37 714.315 1020.03C717.174 1010.12 715.221 1006.11 712.147 996.237C710.672 994.039 708.816 991.651 706.196 993.378C703.079 998.539 706.251 1008.71 707.647 1014.58C709.631 1016.46 710.763 1017.13 710.886 1019.66C708.871 1022.96 696.515 1024.97 693.839 1023.93C693.294 1022.16 693.858 1020.9 694.384 1019.22C696.093 1013.79 689.547 991.418 687.979 984.603C685.298 982.534 684.159 982.393 684.697 978.982C686.559 976.405 691.586 974.017 694.635 972.223Z" fill="#F2E3B5"/>
<path d="M812.926 943.665C819.49 943.047 825.877 946.004 829.654 951.404C833.426 956.811 834.002 963.828 831.155 969.78C828.314 975.725 822.484 979.681 815.908 980.134C805.922 980.82 797.233 973.349 796.419 963.375C795.604 953.394 802.958 944.614 812.926 943.665ZM820.782 972.823C826.366 964.998 816.851 952.249 808.542 951.196C803.711 959.291 812.736 971.213 820.782 972.823Z" fill="#F2E3B5"/>
<path d="M396.034 909.854C396.748 909.799 397.464 909.774 398.179 909.762C405.079 909.719 413.969 915.022 416.264 923.508C419.053 933.819 404.19 940.818 404.041 949.856C404.022 951.062 404.094 950.48 403.222 951.527C397.826 953.315 392.999 946.133 390.327 942.245L391.478 942.343L387.504 941.467C367.793 931.37 385.546 909.119 402.962 927.88C404.983 925.1 406.216 923.239 406.808 919.871C404.785 915.64 399.149 921.096 394.291 918.004C391.765 914.507 393.48 912.346 396.034 909.854ZM394.863 937.805C396.642 935.681 398.221 934.23 398.923 931.597C398.416 928.97 397.114 928.78 394.442 928.609C391.591 931.278 390.91 932.025 390.412 935.865C391.082 937.738 390.494 937.058 392.19 938.014C393.409 937.995 393.703 938.093 394.863 937.805Z" fill="#F2E3B5"/>
<path d="M574.933 992.117C580.224 991.792 587.109 991.823 591.37 995.411C599.221 1002.02 594.422 1013.91 595.209 1021.95C596.335 1023.68 597.559 1024.99 597.504 1026.94C592.232 1033.56 585.409 1025.74 582.522 1025.76C576.237 1025.81 576.159 1027.94 568.56 1025.92C563.942 1022.73 561.578 1019.05 563.564 1013.16C566.927 1003.17 579.402 1008.47 583.871 1006.62C584.246 1004.45 584.161 1002.23 583.624 1000.1C583.156 998.301 582.756 998.075 581.497 997.358C577.356 998.381 576.803 1003.82 571.186 1003.61C569.106 1002.75 569.174 1002.63 567.753 1000.99C566.432 995.944 570.751 993.415 574.933 992.117ZM580.349 1022.13C582.65 1019.17 584.161 1015.95 582.055 1012.45C580.414 1011.43 580.515 1011.5 578.589 1011.21C577.029 1013.18 575.617 1015.23 575.941 1017.88C576.131 1019.44 577.009 1020.62 578.358 1021.35C579.111 1021.77 579.532 1021.86 580.349 1022.13Z" fill="#F2E3B5"/>
<path d="M906.333 865.302C929.24 863.355 911.36 881.675 913.007 887.456C920.11 890.346 921.898 877.934 927.231 877.193C930.764 880.708 927.746 888.307 925.847 891.883C906.97 917.085 874.291 879.747 906.333 865.302ZM906.884 884.835C908.354 881.455 909.848 879.281 908.495 875.816C906.566 873.869 905.745 873.63 902.929 873.397C899.512 878.767 902.2 881.884 906.884 884.835Z" fill="#F2E3B5"/>
<path d="M869.693 880.549C876.049 879.998 881.731 882.95 877.414 889.789C873 892.508 872.779 889.03 867.697 888.705C864.789 891.969 869.944 896.371 872.21 898.857C875.02 896.163 877.016 893.31 881.156 894.945C883.593 898.918 879.557 901.135 876.735 903.37C880.39 907.27 888.509 918.714 894.185 918.824C897.002 918.879 896.892 918.702 897.7 921.335C894.504 924.451 887.236 932.546 883.39 932.938C881.425 931.187 881.958 928.223 881.26 927.103C878.957 923.392 871.004 913.944 867.403 912.175C864.317 914.159 861.256 914.569 860.956 909.915C861.788 908.715 862.119 908.244 862.768 906.952C855.598 894.32 854.869 887.223 869.693 880.549Z" fill="#F2E3B5"/>
<path d="M841.49 905.054C845.93 904.589 850.014 905.005 851.618 909.745C850.21 921.311 842.384 912.641 839.01 912.727L838.178 914.08C838.165 917.692 840.976 920.546 843.186 923.417C845.942 920.987 847.999 918.758 851.777 920.062C854.477 924.183 849.958 926.32 846.952 928.426C850.993 933.337 854.41 939.454 858.861 943.911C861.874 946.936 862.652 943.477 866.221 947.781C863.411 950.432 854.373 957.584 850.895 958.515C849.316 956.959 849.432 954.657 848.758 952.698C847.454 948.895 839.758 937.831 836.739 935.945C835.214 936.809 834.877 937.164 833.138 937.372C831.387 936.355 831.461 936.08 830.585 934.267C830.861 931.72 832.906 931.016 832.642 930.269C828.344 917.901 825.393 911.006 841.49 905.054Z" fill="#F2E3B5"/>
<path d="M933.367 830.371C937.169 830.157 941.069 830.225 943.304 833.629C944.811 840.217 937.788 848.122 939.9 852.353C947.799 853.155 948.24 845.483 951.222 840.499L952.605 840.548C958.22 844.32 954.369 853.461 951.595 858.035C942.386 869.136 926.693 866.791 921.421 853.841C919.669 849.543 919.743 844.724 921.61 840.481C923.992 835.092 928.076 832.361 933.367 830.371ZM934.138 850.228C934.861 847.479 935.749 845.318 935.204 842.599C933.446 840.076 932.356 839.881 929.258 839.183C925.29 844.969 929.399 847.167 934.138 850.228Z" fill="#F2E3B5"/>
<path d="M323.354 825.38C332.817 824.976 339.834 833.946 341.191 842.978C341.66 846.107 337.396 849.701 334.072 849.45C330.213 845.862 334.433 839.433 331.923 835.459L330.766 835.416C321.524 840.602 337.895 856.002 320.184 861.28C308.655 860.257 306.032 851.011 301.749 841.857C303.443 839.004 305.913 835.043 309.539 835.061C313.02 837.908 310.231 846.45 313.157 850.656L314.437 850.662C323.334 843.027 307.655 833.353 323.354 825.38Z" fill="#F2E3B5"/>
<path d="M619.548 986.448C622.536 986.283 623.339 986.019 625.488 987.568C626.578 989.791 626.069 993.104 625.935 995.706C629.798 995.682 633.54 994.996 635.566 998.853C634.636 1003.53 629.474 1002.4 625.745 1002.24C625.72 1006.79 624.863 1016.39 626.112 1020.12C630.037 1023.19 633.215 1019.15 636.717 1020.5L637.103 1021.77C636.479 1024.66 636.099 1025.05 634.544 1027.66C626.976 1033.44 619.389 1032.44 613.529 1025.01C611.427 1015.14 613.891 1009.56 612.544 1002.2C611.522 1001.84 610.497 1001.64 609.429 1001.45L608.744 1000.3C609.085 994.028 612.1 996.618 616.499 992.332C617.405 991.457 618.973 987.764 619.548 986.448Z" fill="#F2E3B5"/>
<path d="M661.754 993.838C667.173 993.433 678.623 994.444 678.44 1001.82C677.233 1004.79 676.009 1005.64 673.198 1007.2C667.143 1006.77 666.867 999.22 662.324 1000.18C658.577 1005.7 659.844 1017.84 667.137 1019.95C670.755 1020.99 674.252 1018.74 677.295 1017.22C683.479 1025.4 666.102 1032.26 656.856 1027.85C652.527 1025.77 649.263 1021.97 647.867 1017.37C644.261 1005.67 650.457 996.924 661.754 993.838Z" fill="#F2E3B5"/>
<path d="M773.935 963.853L774.719 963.798C783.885 963.24 790.822 969.639 782.452 975.958C777.162 976.95 776.715 971.96 772.257 971.133C766.391 974.507 772.765 988.333 779.176 989.159C785.973 990.041 785.924 983.416 791.147 984.549C792.396 986.061 792.212 986.508 792.39 988.486C789.873 993.225 787.038 996.911 781.723 998.87C777.272 1000.5 772.337 1000.17 768.136 997.958C759.484 993.421 755.302 981.414 760.433 972.67C763.544 967.38 768.289 965.408 773.935 963.853Z" fill="#F2E3B5"/>
<path d="M465.094 938.908L466.816 939.129C470.703 939.625 476.734 939.729 479.083 942.766C478.375 947.113 462.376 975.01 459.127 980.894C459.59 984.617 460.301 985.713 457.744 988.493C454.566 986.803 442.975 981.659 442.615 978.5C443.101 977.545 443.368 977.361 444.341 976.871C445.094 976.498 445.877 976.149 446.606 975.72C449.452 974.054 462.933 948.999 464.059 944.78C463.31 941.572 462.7 941.18 465.094 938.908Z" fill="#F2E3B5"/>
<path d="M438.679 923C442.158 923.092 452.492 924.996 453.655 928.486C452.767 932.766 435.124 956.401 432.339 962.273C431.384 964.288 430.62 964.478 430.578 967.698C430.55 969.774 430.39 970.331 429.353 971.935C426.258 970.619 414.823 963.835 414.515 960.736C416.3 958.03 418.858 958.82 420.142 957.277C424.014 952.348 427.678 946.941 431.012 941.608C435.238 934.848 438.952 931.211 438.679 923Z" fill="#F2E3B5"/>
<path d="M633.411 777.633C636.258 778.319 639.081 780.376 640.397 782.868C646.477 794.337 632.596 804.935 630.808 813.03C629.149 820.561 641.928 830.248 638.915 841.043C637.66 845.519 634.201 850.913 630.539 853.265C628.782 852.236 628.745 852.193 627.288 850.766C625.053 845.403 631.507 842.372 631.182 837.032C630.637 827.977 621.544 823.984 622.224 813.814C622.885 803.882 632.847 799.743 633.797 790.712C634.109 787.675 630.343 784.295 630.331 780.48C631.249 778.57 631.543 778.637 633.411 777.633Z" fill="#F2E3B5"/>
<path d="M608.112 803.123C619.316 803.405 609.82 810.893 609.621 815.547C609.375 821.272 616.113 825.154 617.234 830.211C618.415 835.532 613.143 842.856 610.387 847.221C607.696 847.356 606.726 847.221 604.875 845.592C603.415 840.045 609.914 836.23 608.965 832.654C605.787 820.678 594.33 815.522 608.112 803.123Z" fill="#F2E3B5"/>
<path d="M652.729 812.914C662.14 816.71 650.874 821.076 653.237 826.256C657.927 836.549 664.148 843.591 651.547 853.112C650.463 852.677 649.741 852.285 648.7 851.759C645.73 847.019 651.235 844.68 651.314 840.449C651.425 834.424 645.142 830.297 645.185 823.562C645.185 823.109 645.222 822.656 645.302 822.215C645.981 818.455 649.612 814.892 652.729 812.914Z" fill="#F2E3B5"/>
<path d="M652.748 1065.67C656.385 1065.36 665.532 1064.49 664.553 1070.54C661.258 1073.9 652.466 1073.61 647.549 1073.87C643.398 1074.07 639.001 1075.28 636.368 1071.8C635.327 1064.07 646.931 1066.09 652.748 1065.67Z" fill="#F2E3B5"/>
<path d="M713.629 1057.03C716.703 1056.45 717.003 1057.02 718.864 1059.18C719.366 1061.64 719.483 1060.49 718.564 1062.77C715.074 1065.75 704.812 1066.85 699.852 1067.75C696.344 1068.47 693.135 1069.03 691.329 1065.08C692.1 1059.58 709.098 1057.83 713.629 1057.03Z" fill="#F2E3B5"/>
<path d="M526.977 1053.99C532.882 1054.95 548.362 1056.73 550.755 1062.01C550.62 1064.41 550.314 1064.61 548.903 1066.51C542.719 1065.67 529.487 1063.29 524.624 1059.91C523.414 1057.76 523.599 1058.85 523.851 1056.55C525.151 1054.87 525.074 1054.99 526.977 1053.99Z" fill="#F2E3B5"/>
<path d="M580.502 1064.19C586.249 1064.35 603.492 1064.2 606.317 1068.69C606.685 1070.9 606.24 1071.32 605.191 1073.3C599.421 1073.76 582.392 1073.79 579.272 1068.87C579.207 1066.4 579.338 1066.47 580.502 1064.19Z" fill="#F2E3B5"/>
<path d="M766.887 1041.55C769.936 1041.36 770.132 1041.73 771.859 1043.96C772.802 1050.41 756.594 1053.45 751.426 1055.03L749.222 1055.32C746.84 1054.3 747.851 1055.05 746.222 1052.83C745.395 1046.55 761.621 1043.47 766.887 1041.55Z" fill="#F2E3B5"/>
<path d="M609.179 177.216C613.217 176.85 615.966 175.923 618.691 179.062C619.26 181.734 619.438 180.538 618.562 182.808C615.182 185.623 608.195 185.092 603.19 185.462C599.165 185.683 595.394 186.781 592.493 183.842C591.942 181.732 592.006 181.877 592.645 179.768C595.575 177.023 604.597 177.43 609.179 177.216Z" fill="#F2E3B5"/>
<path d="M559.031 182.664C559.284 182.639 561.3 182.425 561.477 182.543C573.477 190.521 545.074 193.26 542.548 193.745C538.929 194.235 537.123 191.847 538.057 188.415C541.608 184.655 553.407 183.581 559.031 182.664Z" fill="#F2E3B5"/>
<path d="M649.123 177.548C654.768 177.459 672.415 177.109 674.435 182.617C674.019 185.073 673.854 185.005 672.219 186.786C666.059 186.458 650.604 187.202 647.616 182.113C647.567 179.786 647.923 179.5 649.123 177.548Z" fill="#F2E3B5"/>
<path d="M816.227 1020.03C818.4 1020.07 818.266 1019.99 820.09 1021.15C821.346 1023.52 821.131 1022.3 820.868 1024.89C817.941 1029.31 806.846 1033.6 801.452 1036.11C796.106 1036.59 794.845 1031.88 798.305 1029.39C803.583 1025.61 810.33 1023.12 816.227 1020.03Z" fill="#F2E3B5"/>
<path d="M207.977 732.041C209.218 732.28 209.735 732.476 210.941 732.868C214.21 736.18 217.409 750.177 217.674 755.247C217.773 757.127 216.268 757.831 214.844 758.952L212.371 758.193C208.979 755.021 205.851 740.926 205.461 736.003C205.314 734.147 206.764 733.204 207.977 732.041Z" fill="#F2E3B5"/>
<path d="M473.64 1037.5C478.681 1037.59 495.492 1042.74 497.516 1047.62C497.541 1049.74 497.089 1050.12 495.949 1051.87C492.115 1051.98 473.728 1046.03 472.128 1042.54C471.943 1040.29 472.607 1039.5 473.64 1037.5Z" fill="#F2E3B5"/>
<path d="M1055.83 639.16C1058.26 639.087 1058.28 639.05 1060.6 639.607C1063.8 642.632 1062.41 662.685 1059.87 665.967C1058.61 665.955 1054.77 665.985 1054.5 664.522C1053.54 659.195 1054.07 643.661 1055.83 639.16Z" fill="#F2E3B5"/>
<path d="M1034.39 483.463C1035.1 483.47 1037.67 483.478 1038.09 483.834C1041.51 486.742 1043.86 496.276 1044.76 500.402C1045.86 505.487 1046.29 505.953 1044.01 509.511C1042.05 509.559 1042.14 509.573 1040.26 509.007C1037.74 506.64 1035.27 498.233 1034.58 494.746C1033.53 489.375 1031.77 487.783 1034.39 483.463Z" fill="#F2E3B5"/>
<path d="M703.165 184.088C709.055 184.737 725.146 186.282 727.259 191.889C727.087 194.097 726.653 194.386 725.299 196.113C719.807 195.427 703.171 193.719 701.175 188.385C701.413 186.147 701.824 185.857 703.165 184.088Z" fill="#F2E3B5"/>
<path d="M367.506 266.846C370.633 267.715 371.455 267.648 372.161 270.935C370.812 275.678 358.681 284.143 354.326 287.349C351.504 286.556 350.981 286.253 350.042 283.644C351.017 278.331 362.869 270.431 367.506 266.846Z" fill="#F2E3B5"/>
<path d="M341.072 953.113C345.907 953.383 359.119 965.182 360.413 969.878C359.912 972.45 360.087 971.642 358.206 973.877C357.536 973.803 355.802 973.65 355.303 973.27C351.66 970.539 339.957 961.453 338.712 957.693C338.728 955.679 339.8 954.754 341.072 953.113Z" fill="#F2E3B5"/>
<path d="M1040.7 742.334C1041.7 742.53 1042.85 742.848 1043.85 743.099C1045.12 744.293 1045.72 744.557 1045.81 746.645C1046.01 751.463 1041.59 765.112 1038.78 768.749C1037.12 768.577 1036.65 768.443 1035.02 768.094C1034.13 767.292 1032.93 766.496 1033.17 765.179C1034.05 760.342 1037.94 745.549 1040.7 742.334Z" fill="#F2E3B5"/>
<path d="M456.366 213.678C459.83 213.603 461.812 213.948 461.39 218.252C458.47 222.6 447.024 226.826 441.635 229.243C438.268 229.841 436.595 227.7 437.18 224.462C440.077 220.322 451.134 216.076 456.366 213.678Z" fill="#F2E3B5"/>
<path d="M507.742 194.754C509.593 195.288 510.319 195.854 511.535 197.26C511.622 198.148 511.854 198.756 511.434 199.45C508.838 203.736 493.841 207.335 489.166 208.733C486.609 207.883 487.588 208.613 486.002 206.636C485.793 205.458 485.375 204.171 486.31 203.12C489.614 199.41 502.78 196.256 507.742 194.754Z" fill="#F2E3B5"/>
<path d="M218.982 474.842C220.591 475.245 221.285 475.539 222.814 476.116C223.734 477.177 224.489 477.783 224.021 479.599C222.71 484.682 219.44 498.096 215.8 501.221C213.909 500.773 210.325 500.008 210.796 497.431C211.788 491.996 215.35 478.673 218.982 474.842Z" fill="#F2E3B5"/>
<path d="M1015.73 434.475C1016.56 434.56 1018.81 434.754 1019.39 435.493C1023.46 440.743 1027.23 449.66 1028.4 456.169C1028.68 457.756 1027.12 458.967 1026.17 460.002L1023.52 459.648C1019.98 457.052 1014.6 443.111 1013.73 438.399C1013.42 436.758 1014.67 435.756 1015.73 434.475Z" fill="#F2E3B5"/>
<path d="M1048.17 534.391C1050.17 534.46 1050.06 534.399 1051.87 535.203C1054.2 537.794 1055.88 545.849 1056.17 549.339C1056.59 554.352 1058.25 557.292 1055.42 561.042C1053.35 561.005 1053.24 561.025 1051.12 560.505C1048.52 558.26 1047.22 545.013 1046.58 541.251C1045.92 537.397 1046.17 536.971 1048.17 534.391Z" fill="#F2E3B5"/>
<path d="M273.832 874.604C278.09 876.055 288.008 890.272 289.332 894.497C289.134 896.426 288.019 897.161 286.615 898.588C285.772 898.477 284.166 898.318 283.594 897.724C279.579 893.536 271.515 884.241 270.904 878.4C271.79 875.883 271.597 876.612 273.832 874.604Z" fill="#F2E3B5"/>
<path d="M410.729 237.439C412.935 238.032 412.843 238.075 414.501 239.475C414.882 240.484 415.291 240.933 414.971 241.832C413.339 246.395 400.069 253.312 395.796 255.873C393.579 255.304 393.725 255.378 392.017 253.853C391.622 252.711 391.233 252.361 391.622 251.375C393.447 246.754 406.299 240.085 410.729 237.439Z" fill="#F2E3B5"/>
<path d="M224.152 782.256C224.657 782.354 226.73 782.715 227.125 783.242C231.038 788.446 234.312 797.906 235.834 804.268C236.244 805.977 234.508 807.238 233.495 808.291L230.571 807.575C227.112 804.458 222.074 791.281 221.552 786.217C221.366 784.417 222.855 783.505 224.152 782.256Z" fill="#F2E3B5"/>
<path d="M973.277 883.336C975.12 883.452 975.187 883.63 976.901 884.414C977.691 885.491 978.071 885.577 978.095 886.783C978.193 891.602 967.784 903.175 964.423 906.72C962.867 906.567 962.757 906.395 961.245 905.875C960.498 905.03 959.849 904.632 959.788 903.664C959.506 898.821 970.08 887.163 973.277 883.336Z" fill="#F2E3B5"/>
<path d="M1052.28 691.035C1053.38 691.2 1055.43 691.427 1056.03 692.223C1059.48 696.815 1054.96 714.933 1051.84 718.148C1050.71 717.897 1049.5 717.554 1048.37 717.26C1047.35 716.256 1046.54 715.803 1046.78 714.052C1047.49 708.706 1048.96 694.623 1052.28 691.035Z" fill="#F2E3B5"/>
<path d="M381.356 986.055C386.517 987.114 400.132 996.066 401.971 1000.83C401.982 1002.95 401.344 1003.42 400.052 1005.12C395.783 1004.63 379.825 994.425 379.026 990.763C379.138 988.669 380.099 987.775 381.356 986.055Z" fill="#F2E3B5"/>
<path d="M940.696 924.311C942.851 924.611 942.71 924.617 944.584 925.756C945.141 926.741 945.674 927.201 945.496 928.156C944.535 933.232 933.801 942.514 929.999 946.219C928.052 946.151 928.156 946.121 926.35 945.349C924.941 943.659 925.339 944.602 925.113 942.398C926.882 937.304 936.404 928.542 940.696 924.311Z" fill="#F2E3B5"/>
<path d="M1056.01 586.469C1058.04 586.886 1058.3 586.769 1059.9 588.119C1062.51 593.355 1062.35 604.137 1062.07 610.136C1061.99 611.897 1060.69 612.446 1059.38 613.377C1057.54 613.157 1057.57 613.255 1055.97 612.379C1053.54 608.758 1053.54 598.665 1053.48 594.202C1053.43 589.719 1053.24 589.228 1056.01 586.469Z" fill="#F2E3B5"/>
<path d="M862.107 993C864.415 993.343 864.47 993.208 866.43 994.623C868.517 1000.59 853.026 1008.14 848.409 1011C846.383 1011.15 845.213 1010.97 843.627 1009.78C842.188 1003.63 857.318 996.031 862.107 993Z" fill="#F2E3B5"/>
<path d="M962.598 346.422C963.535 346.499 965.433 346.571 966.088 347.228C970.197 351.315 977.961 360.545 978.922 366.14C978.206 368.716 978.487 367.879 976.387 369.987C971.997 369.526 961.931 354.908 960.547 350.521C960.89 347.985 960.829 348.73 962.598 346.422Z" fill="#F2E3B5"/>
<path d="M1023.2 792.127C1025.01 792.292 1025.18 792.451 1026.9 793.113C1030.91 797.883 1022.36 813.239 1019.03 817.807C1009.44 816.019 1016.06 807.422 1018.24 801.599C1019.27 798.838 1021.53 794.552 1023.2 792.127Z" fill="#F2E3B5"/>
<path d="M754.292 197.494C758.982 197.503 775.906 202.175 777.725 207.207C777.59 209.656 777.443 209.616 776.157 211.612C771.265 211.1 754.978 206.476 752.829 202.063C752.688 199.842 753.165 199.404 754.292 197.494Z" fill="#F2E3B5"/>
<path d="M203.547 525.197C205.971 525.266 205.943 525.221 208.212 525.988C211.214 529.346 206.445 548.868 203.862 551.671C201.36 551.337 200.023 551.331 198.706 549.192C198.318 544.155 201.321 529.581 203.547 525.197Z" fill="#F2E3B5"/>
<path d="M246.812 830.064C247.206 830.242 249.092 831.014 249.329 831.369C252.572 836.23 259.214 846.095 260.127 851.611C259.477 853.528 258.085 854.11 256.34 855.279C251.959 853.467 243.696 838.496 243.666 833.383C244.792 831.02 244.429 831.761 246.812 830.064Z" fill="#F2E3B5"/>
<path d="M328.301 301.004C331.385 301.638 332.297 301.657 333.11 304.795C332.066 309.668 321.519 318.76 317.376 322.768C315.497 322.424 315.495 322.31 313.79 321.368C313.218 320.483 312.684 320.045 312.764 319.121C313.197 314.08 324.599 304.52 328.301 301.004Z" fill="#F2E3B5"/>
<path d="M425.456 1014.4C430.383 1014.65 445.947 1022.17 447.988 1026.54C448.173 1028.54 447.588 1029.06 446.498 1030.77C441.4 1030.76 425.656 1023.42 423.827 1018.59C423.838 1016.57 424.367 1016.09 425.456 1014.4Z" fill="#F2E3B5"/>
<path d="M902.806 961.109C905.764 961.348 907.166 961.397 907.987 964.434C906.97 969.443 895.263 977.531 890.903 980.93C888.699 980.77 888.699 980.887 886.77 979.613C886.329 978.75 885.889 978.315 886.084 977.464C887.211 972.633 898.931 964.244 902.806 961.109Z" fill="#F2E3B5"/>
<path d="M928.774 307.049C934.193 307.343 945.282 319.656 946.892 324.85C946.488 327.408 946.592 326.63 944.59 328.897C944.168 328.886 942.912 328.881 942.655 328.729C938.786 326.42 928.346 314.911 926.582 311.738C926.833 308.956 926.895 309.675 928.774 307.049Z" fill="#F2E3B5"/>
<path d="M193.137 628.561C195.195 628.646 195.201 628.542 197.075 629.301C198.336 630.753 199.045 632.522 199.09 634.439C199.226 640.243 200.96 650.665 197.525 655.373C195.423 655.263 195.436 655.386 193.583 654.479C190.541 650.463 189.964 632.804 193.137 628.561Z" fill="#F2E3B5"/>
<path d="M198.131 680.674C200.022 681.133 200.11 680.998 201.595 682.18C204.283 686.901 205.455 698.198 205.502 703.843C205.518 705.852 204.252 706.433 202.874 707.585C198.256 706.648 198.415 705.019 197.422 700.653C196.187 695.216 195.437 689.503 195.546 683.95C195.581 682.217 197.053 681.482 198.131 680.674Z" fill="#F2E3B5"/>
<path d="M238.185 427.219C248.126 427.713 241.717 437.082 239.513 442.363C238.237 445.424 236.267 449.126 234.536 451.947C233.039 451.977 232.344 451.816 230.873 451.585C229.811 450.736 228.897 450.258 228.92 448.56C228.988 443.573 235.622 431.058 238.185 427.219Z" fill="#F2E3B5"/>
<path d="M306.148 915.799C310.806 917.819 321.915 929.955 322.266 934.915C321.091 937.413 321.525 936.605 318.986 938.362C314.722 936.636 303.038 924.053 302.859 919.154C303.998 916.834 303.764 917.489 306.148 915.799Z" fill="#F2E3B5"/>
<path d="M1000.67 839.322C1002.33 839.377 1002.61 839.537 1004.23 840.014C1005.03 840.822 1005.7 841.171 1005.81 842.151C1006.36 847.264 997.659 859.155 994.824 863.6C993.82 863.533 992.638 863.306 991.621 863.147C989.638 861.616 990.311 862.571 989.546 860.177C990.311 854.195 997.169 844.766 1000.67 839.322Z" fill="#F2E3B5"/>
<path d="M263.428 381.885C266.157 381.988 266.643 382.206 268.291 384.127C269.179 389.445 260.479 400.908 257.237 405.869C255.254 405.669 255.264 405.662 253.397 404.953C249.237 399.98 259.899 386.292 263.428 381.885Z" fill="#F2E3B5"/>
<path d="M890.891 272.307C896.034 272.38 908.942 283.158 910.418 288.388C909.842 291.058 910.111 290.16 908.085 292.41C903.811 291.902 891.105 280.632 888.828 276.975C889.024 274.33 889.213 274.856 890.891 272.307Z" fill="#F2E3B5"/>
<path d="M849.787 241.889C854.373 242.874 868.695 251.467 869.675 256.507C869.289 258.655 868.677 258.96 867.103 260.469C862.872 259.385 847.62 250.258 846.97 245.602C847.601 243.38 847.975 243.272 849.787 241.889Z" fill="#F2E3B5"/>
<path d="M802.554 217.106C807.716 217.058 823.617 223.913 825.448 228.976C825.338 231.109 825.013 231.273 823.874 233.069C820.121 233.05 803.013 225.179 801.446 222.264C800.925 220.032 801.586 219.216 802.554 217.106Z" fill="#F2E3B5"/>
<path d="M293.642 339.596C302.275 341.38 296.812 347.818 293.502 352.086C290.682 355.721 287.625 359.274 284.688 362.823C282.859 362.599 282.793 362.454 281.09 361.658C280.395 360.737 279.902 360.458 279.881 359.431C279.782 354.629 290.349 343.188 293.642 339.596Z" fill="#F2E3B5"/>
<path d="M195.494 576.555C196.615 576.613 199.139 576.681 199.749 577.332C202.917 580.705 200.045 600.499 197.964 603.115C195.938 603.089 195.748 603.231 193.899 602.314C190.604 598.269 192.895 580.671 195.494 576.555Z" fill="#F2E3B5"/>
<path d="M522.963 894.547C530.021 894.529 541.58 893.96 548.529 895.784C550.133 896.201 550.31 897.168 550.756 898.368C550.08 900.622 550.318 899.905 548.45 901.736C542.255 901.369 524.549 903.279 521.509 898.662C521.406 896.47 521.737 896.366 522.963 894.547Z" fill="#F2E3B5"/>
<path d="M992.583 388.496C997.793 390.091 1004.95 403.845 1006.13 409.308C1006.43 410.691 1004.51 412.216 1003.64 413.106L1001.43 412.646C998.093 410.115 990.458 396.947 989.735 392.21C990.501 389.693 990.25 390.483 992.583 388.496Z" fill="#F2E3B5"/>
<path d="M731.012 894.853C736.786 894.522 745.965 893.114 750.214 897.504C749.761 901.906 742.174 901.417 738.899 901.337C734.049 901.472 723.64 902.702 720.615 898.998C721.454 893.922 726.818 894.945 731.012 894.853Z" fill="#F2E3B5"/>
<path d="M482.635 975.744C486.362 976.908 501.686 982.369 503.343 985.094C503.343 987.402 502.247 988.939 501.167 991.033C496.199 989.784 484.742 984.678 479.813 982.516C480.642 979.847 481.445 978.261 482.635 975.744Z" fill="#F2E3B5"/>
<path d="M548.272 909.254L550.201 910.436C551.35 912.567 551.23 911.501 550.811 913.699C547.96 917.41 536.556 922.767 531.986 924.641L530.005 923.214C529.576 922.112 528.914 921.041 529.796 919.841C532.739 915.842 543.962 910.95 548.272 909.254Z" fill="#F2E3B5"/>
<path d="M530.673 872.143C535.977 872.614 547.708 878.915 550.572 883.409C550.759 885.907 550.765 885.05 549.198 887.609C545.413 887.058 532.643 880.237 529.774 876.41C529.321 873.973 529.403 874.818 530.673 872.143Z" fill="#F2E3B5"/>
<path d="M721.546 909.541C726.971 910.025 737.319 915.658 740.729 920.085C741.691 921.328 740.472 923.097 739.915 924.316C735.605 924.745 723.812 917.36 721.001 913.748C720.572 911.323 720.677 912.119 721.546 909.541Z" fill="#F2E3B5"/>
<path d="M738.023 871.842L739.983 872.987C741.189 875.203 741.036 874.089 740.687 876.41C737.962 880.396 728.122 884.89 723.475 887.333L721.577 886.286C720.407 884.265 720.579 885.3 720.909 883.096C723.61 879.061 733.413 874.352 738.023 871.842Z" fill="#F2E3B5"/>
</svg>
